<?xml version="1.0" standalone="no"?>
<!DOCTYPE svg PUBLIC "-//W3C//DTD SVG 20010904//EN"
 "http://www.w3.org/TR/2001/REC-SVG-20010904/DTD/svg10.dtd">
<svg version="1.0" xmlns="http://www.w3.org/2000/svg"
 width="1024.000000pt" height="1024.000000pt" viewBox="0 0 1024.000000 1024.000000"
 preserveAspectRatio="xMidYMid meet">

<g transform="translate(0.000000,1024.000000) scale(0.100000,-0.100000)"
fill="#000000" stroke="none">
<path d="M4960 8928 c-84 -12 -146 -41 -245 -114 -44 -33 -134 -98 -199 -144
-66 -47 -183 -140 -262 -207 -110 -95 -145 -131 -154 -159 -18 -53 -7 -470 15
-589 25 -138 78 -333 138 -516 l55 -166 -26 -54 c-25 -51 -27 -62 -26 -189 1
-160 27 -296 99 -509 25 -74 48 -156 51 -181 6 -45 4 -50 -32 -90 -22 -24
-111 -99 -199 -168 -443 -347 -729 -584 -793 -657 -26 -29 -32 -44 -32 -80 0
-37 4 -47 27 -62 64 -42 186 -8 241 66 118 160 729 787 749 768 17 -17 -280
-462 -462 -692 -128 -162 -214 -280 -225 -309 -13 -35 4 -67 53 -96 41 -26 98
-25 181 0 92 29 111 49 156 165 110 286 117 301 257 580 95 189 154 298 158
293 3 -3 -45 -242 -71 -353 -9 -38 -39 -149 -66 -245 -62 -218 -106 -393 -110
-444 -3 -35 0 -41 30 -59 50 -30 131 -25 229 12 44 17 89 40 101 51 26 25 26
25 7 275 -15 192 -18 564 -7 665 l7 55 22 -28 c36 -46 82 -171 99 -264 41
-236 131 -532 176 -577 l29 -29 107 5 c88 4 117 9 164 30 57 27 148 101 148
122 0 6 -37 56 -81 111 -162 198 -231 304 -313 475 -38 79 -127 302 -122 307
3 3 219 -219 411 -422 153 -163 330 -327 378 -352 97 -50 320 -5 415 84 66 63
38 104 -148 213 -236 139 -522 334 -610 416 -47 43 -105 96 -130 117 -44 37
-44 38 -15 32 103 -23 178 -50 475 -175 68 -29 259 -117 424 -197 l298 -146
77 6 c122 8 232 61 267 129 20 39 11 74 -24 92 -51 26 -216 75 -327 96 -60 12
-157 34 -215 51 -58 16 -152 41 -210 55 -204 51 -276 72 -400 112 -69 22 -137
43 -152 47 -16 3 -28 12 -28 20 0 12 19 15 104 15 99 0 236 -16 516 -60 69
-11 208 -31 310 -45 236 -32 388 -60 468 -86 44 -15 74 -19 99 -14 113 21 233
100 233 153 0 37 -10 49 -55 69 -35 15 -94 18 -505 24 -501 8 -612 12 -935 31
-140 9 -195 15 -165 19 l45 6 -40 3 c-30 2 -18 6 50 15 50 7 115 17 145 23 30
6 150 16 265 22 116 5 278 14 360 20 83 5 247 10 365 10 234 0 329 10 396 40
45 19 94 61 94 79 0 6 -19 21 -42 33 -39 21 -55 23 -178 22 -152 -2 -351 -22
-580 -59 -85 -14 -252 -40 -370 -59 -118 -19 -262 -44 -320 -56 -160 -31 -391
-70 -429 -72 -65 -3 -111 78 -111 192 0 131 117 278 298 373 48 25 166 74 262
107 342 120 721 336 776 442 43 83 89 346 105 607 21 336 8 389 -129 529 -123
124 -256 182 -424 182 -71 0 -78 -2 -78 -20 0 -33 33 -56 101 -69 115 -21 121
-23 112 -31 -4 -4 -24 -13 -44 -19 -41 -13 -84 -54 -74 -70 3 -6 17 -11 29
-11 13 0 34 -8 47 -19 13 -10 56 -35 94 -56 39 -20 108 -60 154 -89 l84 -51
-6 -90 c-7 -99 -88 -444 -131 -559 -38 -99 -61 -132 -125 -175 -190 -129 -501
-231 -705 -231 -81 0 -87 2 -119 30 -57 50 -82 119 -82 230 0 76 4 102 18 123
10 16 24 29 30 31 117 31 164 51 209 93 26 25 48 52 48 60 0 11 7 10 29 -6 64
-46 186 -12 228 64 12 22 28 63 34 91 23 102 -37 218 -126 243 -40 11 -80 6
-104 -13 -11 -8 -16 -6 -25 9 -29 51 -123 137 -183 167 -67 33 -174 48 -246
34 -55 -10 -118 -59 -177 -137 -58 -77 -96 -101 -177 -114 -47 -7 -53 -21 -28
-58 13 -21 11 -31 -22 -120 l-36 -98 23 -24 c13 -13 52 -34 88 -47 98 -35 119
-85 91 -220 -27 -128 -108 -219 -214 -242 -30 -6 -31 -6 -116 146 -126 223
-168 343 -189 530 -14 137 -12 197 9 243 35 77 355 433 487 541 l40 33 145
-35 c85 -21 159 -45 180 -59 20 -13 40 -21 43 -18 10 11 7 52 -8 88 -8 19 -12
35 -8 35 3 0 36 -29 72 -64 63 -62 75 -70 113 -67 28 2 20 45 -19 107 -20 30
-34 58 -31 60 2 2 19 -3 37 -12 68 -34 150 -28 150 11 0 25 -181 90 -314 114
-70 13 -184 12 -276 -1z"/>
<path d="M5336 4576 c-53 -107 -96 -201 -96 -209 0 -8 20 -52 44 -98 78 -147
195 -470 237 -656 13 -57 26 -103 29 -102 3 0 55 30 115 67 l110 67 -3 210
c-4 231 -20 372 -52 458 -22 59 -109 196 -179 282 -22 28 -54 78 -71 113 -16
34 -32 62 -34 62 -3 0 -48 -87 -100 -194z"/>
<path d="M5160 4716 c-32 -18 -79 -25 -220 -35 -96 -7 -127 -13 -191 -40 l-77
-33 -6 -181 c-10 -276 -24 -411 -61 -618 -34 -188 -106 -500 -151 -653 -12
-44 -21 -83 -18 -87 5 -9 216 -79 238 -79 8 0 22 21 32 48 33 91 42 108 109
227 94 166 182 338 211 415 53 138 58 176 59 460 0 263 0 266 27 335 81 214
95 255 81 255 -5 -1 -19 -7 -33 -14z"/>
<path d="M5677 3430 c-47 -33 -89 -65 -92 -70 -10 -16 33 -201 61 -259 18 -37
54 -83 109 -136 72 -71 105 -111 105 -129 0 -11 -31 -6 -62 10 l-31 16 24 -34
c64 -91 293 -288 336 -288 30 0 76 42 97 89 l18 39 -93 107 c-113 128 -161
196 -188 270 -27 71 -26 83 4 186 29 99 31 160 8 200 -20 33 -51 45 -144 53
l-65 6 -87 -60z"/>
<path d="M4361 2861 c-56 -207 -52 -391 13 -527 34 -72 47 -134 27 -134 -5 0
-23 12 -40 26 l-31 26 6 -34 c10 -49 52 -196 73 -253 60 -157 76 -173 166
-158 75 12 80 28 60 206 -9 78 -18 196 -18 262 l-2 120 47 70 c26 39 58 85 72
104 38 51 42 92 17 145 -12 24 -37 56 -56 70 -26 20 -297 156 -310 156 -2 0
-12 -35 -24 -79z"/>
</g>
</svg>
